<?xml version="1.0" encoding="UTF-8"?>
<svg version="1.1" xmlns="http://www.w3.org/2000/svg" width="145" height="65">
<path d="M0 0 C47.85 0 95.7 0 145 0 C145 21.45 145 42.9 145 65 C97.15 65 49.3 65 0 65 C0 43.55 0 22.1 0 0 Z " fill="#030408" transform="translate(0,0)"/>
<path d="M0 0 C2.75329021 1.79562405 4.52627461 3.05254922 6 6 C6.36206054 10.41713859 6.51432609 12.94898583 4.5625 16.9375 C1.43462494 19.45505797 -0.76882796 20.04270028 -4.73828125 20.24609375 C-7.70272533 19.92353766 -9.83733207 18.91266793 -11.95703125 16.79296875 C-14.14542439 13.03089964 -14.01058382 9.13728948 -13 5 C-9.9235039 0.14237459 -5.47396571 -0.89573984 0 0 Z " fill="#F59F06" transform="translate(34,6)"/>
<path d="M0 0 C1.65 0 3.3 0 5 0 C5 6.93 5 13.86 5 21 C3.02 21 1.04 21 -1 21 C-3.00569659 21.29714023 -5.00822259 21.62061383 -7 22 C-9.8188382 19.09307311 -10.93686067 17.51413456 -11.4375 13.4375 C-10.98129943 9.85306696 -10.77081437 8.30901197 -8 6 C-4.87376745 5.68099668 -2.82883747 5.58558126 0 7 C0 4.69 0 2.38 0 0 Z " fill="#EFEFF0" transform="translate(85,13)"/>
<path d="M0 0 C4.455 2.97 4.455 2.97 9 6 C12.3 4.02 15.6 2.04 19 0 C19.79274611 5.7253886 19.79274611 5.7253886 19 9 C16.33161241 11.87124747 13.32604843 13.94761694 10 16 C8.31243867 15.03567924 6.6502694 14.0268343 5 13 C4.071875 12.46375 3.14375 11.9275 2.1875 11.375 C-0.35695308 8.61245095 -0.3125 7.86888241 -0.3125 4.25 C-0.209375 2.8475 -0.10625 1.445 0 0 Z " fill="#CA0680" transform="translate(21,26)"/>
<path d="M0 0 C1.32 0 2.64 0 4 0 C4.33 3.3 4.66 6.6 5 10 C5.99 10.33 6.98 10.66 8 11 C8.33 7.37 8.66 3.74 9 0 C10.98 0 12.96 0 15 0 C15 4.95 15 9.9 15 15 C12.69 15 10.38 15 8 15 C7.67 15.33 7.34 15.66 7 16 C4.5625 16.25 4.5625 16.25 2 16 C-0.42130331 12.36804504 -0.21022785 10.61650652 -0.125 6.3125 C-0.09792969 4.54326172 -0.09792969 4.54326172 -0.0703125 2.73828125 C-0.04710938 1.83464844 -0.02390625 0.93101563 0 0 Z " fill="#E1E1E2" transform="translate(94,19)"/>
<path d="M0 0 C3.40755272 1.92880342 6.74147635 3.8276509 10 6 C10.56589844 5.566875 11.13179687 5.13375 11.71484375 4.6875 C12.44832031 4.130625 13.18179688 3.57375 13.9375 3 C14.66839844 2.443125 15.39929688 1.88625 16.15234375 1.3125 C18 0 18 0 19 0 C19.50102194 3.13138714 19.66741819 5.88538177 19 9 C16.74064558 11.71122531 14.25870504 13.63229533 11 15 C6.6986718 14.52023647 2.78340132 12.28947429 0 9 C-0.59431266 5.91474211 -0.42557992 3.10065367 0 0 Z " fill="#8832CE" transform="translate(21,40)"/>
<path d="M0 0 C2.73255991 0.06447056 3.77132266 0.11231558 6.0625 1.6875 C7.0625 3.3125 7.0625 3.3125 7.0625 5.3125 C4.03830475 4.72446203 1.04491547 4.08571882 -1.9375 3.3125 C-1.6075 3.9725 -1.2775 4.6325 -0.9375 5.3125 C1.3765622 6.04325648 3.71078869 6.71388258 6.0625 7.3125 C6.3925 9.2925 6.7225 11.2725 7.0625 13.3125 C3.6215033 15.67204059 1.270339 17.06775315 -2.9375 16.3125 C-5.25 14.4375 -5.25 14.4375 -6.9375 12.3125 C-6.9375 11.6525 -6.9375 10.9925 -6.9375 10.3125 C-3.91330475 10.90053797 -0.91991547 11.53928118 2.0625 12.3125 C2.0625 11.6525 2.0625 10.9925 2.0625 10.3125 C0.94875 10.18875 -0.165 10.065 -1.3125 9.9375 C-4.9375 9.3125 -4.9375 9.3125 -6.9375 7.3125 C-6.41419811 2.07948106 -5.47456948 0.43448964 0 0 Z " fill="#E8E8E9" transform="translate(117.9375,18.6875)"/>
<path d="M0 0 C2.33333333 0 4.66666667 0 7 0 C7.99 -0.04125 8.98 -0.0825 10 -0.125 C13 0 13 0 15 2 C15.1953125 5.0390625 15.1953125 5.0390625 15.125 8.625 C15.10695313 9.81351563 15.08890625 11.00203125 15.0703125 12.2265625 C15.04710938 13.14179687 15.02390625 14.05703125 15 15 C13.68 15 12.36 15 11 15 C10.67 11.7 10.34 8.4 10 5 C8.68 5 7.36 5 6 5 C5.67 8.3 5.34 11.6 5 15 C3.35 15 1.7 15 0 15 C0 10.05 0 5.1 0 0 Z " fill="#F2F2F2" transform="translate(56,19)"/>
<path d="M0 0 C1.65 0 3.3 0 5 0 C5 6.6 5 13.2 5 20 C3.35 20 1.7 20 0 20 C0 13.4 0 6.8 0 0 Z " fill="#F0F0F0" transform="translate(48,14)"/>
<path d="M0 0 C5.94 0.33 11.88 0.66 18 1 C16 5 16 5 14.25 6.25 C11.20932719 7.2635576 9.19602338 7.44744327 6 7 C3.61760542 5.54349058 2.00576992 4.00576992 0 2 C0 1.34 0 0.68 0 0 Z " fill="#E14941" transform="translate(21,19)"/>
<path d="M0 0 C6.27 0 12.54 0 19 0 C19 1.32 19 2.64 19 4 C16.20826945 4.02690104 13.41679652 4.04679053 10.625 4.0625 C9.43390625 4.07506836 9.43390625 4.07506836 8.21875 4.08789062 C2.2265625 4.11328125 2.2265625 4.11328125 0 3 C0 2.01 0 1.02 0 0 Z " fill="#F47A24" transform="translate(21,16)"/>
<path d="M0 0 C4.95 0 9.9 0 15 0 C10 5 10 5 8.0625 6.125 C4.4620158 5.90678884 2.54419663 3.42855133 0 1 C0 0.67 0 0.34 0 0 Z " fill="#733EE4" transform="translate(23,49)"/>
<path d="M0 0 C4.29 0 8.58 0 13 0 C8.25 4.875 8.25 4.875 6 6 C3.97945196 4.35830472 1.97956942 2.69088222 0 1 C0 0.67 0 0.34 0 0 Z " fill="#C40E92" transform="translate(24,36)"/>
<path d="M0 0 C1.48285242 0.95262034 2.96118201 1.91228405 4.4375 2.875 C5.67306641 3.67550781 5.67306641 3.67550781 6.93359375 4.4921875 C9 6 9 6 10 8 C6.7 8.33 3.4 8.66 0 9 C0 6.03 0 3.06 0 0 Z " fill="#D90577" transform="translate(21,26)"/>
<path d="M0 0 C1.67542976 0.28604898 3.34385343 0.61781233 5 1 C5 2.98 5 4.96 5 7 C1.25 8.125 1.25 8.125 -1 7 C-1.04254356 5.00045254 -1.04080783 2.99958364 -1 1 C-0.67 0.67 -0.34 0.34 0 0 Z " fill="#0B0D11" transform="translate(80,23)"/>
<path d="M0 0 C0 2.97 0 5.94 0 9 C-0.33 8.34 -0.66 7.68 -1 7 C-3.64 7 -6.28 7 -9 7 C-2.18421053 0 -2.18421053 0 0 0 Z " fill="#8E26B2" transform="translate(40,40)"/>
<path d="M0 0 C5.94 0.33 11.88 0.66 18 1 C18 1.66 18 2.32 18 3 C12.39 3 6.78 3 1 3 C0.67 2.01 0.34 1.02 0 0 Z " fill="#EB6034" transform="translate(21,19)"/>
<path d="M0 0 C2.475 0.495 2.475 0.495 5 1 C4.67 2.65 4.34 4.3 4 6 C2.68 5.67 1.36 5.34 0 5 C0 3.35 0 1.7 0 0 Z " fill="#868789" transform="translate(99,42)"/>
<path d="M0 0 C2.475 0.495 2.475 0.495 5 1 C5 2.65 5 4.3 5 6 C4.34 6 3.68 6 3 6 C3 5.34 3 4.68 3 4 C2.34 4 1.68 4 1 4 C0.67 4.66 0.34 5.32 0 6 C0 4.02 0 2.04 0 0 Z " fill="#9B9C9E" transform="translate(110,42)"/>
<path d="M0 0 C0 2.97 0 5.94 0 9 C-0.33 7.68 -0.66 6.36 -1 5 C-2.65 5 -4.3 5 -6 5 C-1.125 0 -1.125 0 0 0 Z " fill="#C6175C" transform="translate(40,26)"/>
<path d="M0 0 C0.99 0.33 1.98 0.66 3 1 C3.33 2.65 3.66 4.3 4 6 C2.02 6 0.04 6 -2 6 C-1.34 4.02 -0.68 2.04 0 0 Z " fill="#A5A5A7" transform="translate(49,42)"/>
<path d="M0 0 C3.465 1.98 3.465 1.98 7 4 C7 4.33 7 4.66 7 5 C4.69 5 2.38 5 0 5 C0 3.35 0 1.7 0 0 Z " fill="#9822AD" transform="translate(21,40)"/>
<path d="M0 0 C1.32 0 2.64 0 4 0 C4 1.98 4 3.96 4 6 C2.68 5.67 1.36 5.34 0 5 C0.99 4.34 1.98 3.68 3 3 C2.01 3 1.02 3 0 3 C0 2.01 0 1.02 0 0 Z " fill="#A8A9AA" transform="translate(79,42)"/>
<path d="M0 0 C2.31 0 4.62 0 7 0 C7 0.66 7 1.32 7 2 C5.02 2.99 5.02 2.99 3 4 C2.01 3.34 1.02 2.68 0 2 C0 1.34 0 0.68 0 0 Z " fill="#AC1597" transform="translate(27,38)"/>
<path d="M0 0 C1.32 0.33 2.64 0.66 4 1 C4 1.66 4 2.32 4 3 C3.34 3 2.68 3 2 3 C2 3.66 2 4.32 2 5 C2.66 5.33 3.32 5.66 4 6 C2.68 6 1.36 6 0 6 C0 4.02 0 2.04 0 0 Z " fill="#B0B1B2" transform="translate(120,42)"/>
<path d="M0 0 C2.625 -0.1875 2.625 -0.1875 5 0 C5 0.99 5 1.98 5 3 C2.69 3 0.38 3 -2 3 C-1.34 2.01 -0.68 1.02 0 0 Z " fill="#DE0578" transform="translate(34,31)"/>
<path d="M0 0 C1.32 0 2.64 0 4 0 C3.67 1.32 3.34 2.64 3 4 C2.34 4 1.68 4 1 4 C0.67 4.66 0.34 5.32 0 6 C0 4.02 0 2.04 0 0 Z " fill="#A6A6A8" transform="translate(69,42)"/>
<path d="M0 0 C1.32 0 2.64 0 4 0 C3.67 1.32 3.34 2.64 3 4 C2.34 4 1.68 4 1 4 C0.67 4.66 0.34 5.32 0 6 C0 4.02 0 2.04 0 0 Z " fill="#A5A5A7" transform="translate(59,42)"/>
<path d="M0 0 C2.01920337 1.30406884 4.01924973 2.63823419 6 4 C6 4.33 6 4.66 6 5 C4.02 5 2.04 5 0 5 C0 3.35 0 1.7 0 0 Z " fill="#D51C5F" transform="translate(21,26)"/>
</svg>
